# Blender v2.90.0 OBJ File: 'bird.blend'
# www.blender.org
mtllib bird.mtl
o Cube
v 2.880170 0.040039 -1.955374
v 2.880170 -0.040039 -1.955374
v 2.880170 0.040039 1.955374
v 2.880170 -0.040039 1.955374
v -2.420827 0.099395 -0.275907
v -2.354156 -0.143827 -0.275907
v -2.420827 0.099395 0.275907
v -2.354156 -0.143827 0.275907
v 1.560496 -0.092900 -1.322212
v -1.680735 -0.040396 -0.489636
v 1.560496 0.092900 1.322212
v -1.788795 0.353813 0.489636
v -1.680735 -0.040396 0.489636
v 1.560496 -0.092900 1.322212
v -1.788795 0.353813 -0.489636
v 1.560496 0.092900 -1.322212
v 0.535678 -0.594937 -5.657667
v -0.535678 -0.605959 -5.657667
v 0.535678 -0.576566 5.657667
v -0.535678 -0.565544 5.657667
v -0.535678 -0.605959 5.657667
v 0.535678 -0.594937 5.657667
v -0.535678 -0.565544 -5.657667
v 0.535678 -0.576566 -5.657667
v 0.489589 -0.438433 5.263535
v 0.749859 -0.286692 4.869402
v 0.703770 -0.202415 4.475270
v 0.964041 -0.089706 4.081138
v 0.917952 -0.036546 3.687006
v 1.178222 0.054848 3.292874
v 1.132133 0.062458 2.898741
v 1.392404 0.070069 2.504609
v 1.346314 0.077679 2.110476
v 1.606585 0.085290 1.716344
v 0.489589 -0.472024 5.263535
v 0.749859 -0.335505 4.869402
v 0.703770 -0.266448 4.475270
v 0.964041 -0.168960 4.081138
v 0.917952 -0.131022 3.687006
v 1.178222 -0.054848 3.292874
v 1.132133 -0.062458 2.898741
v 1.392404 -0.070069 2.504609
v 1.346314 -0.077679 2.110476
v 1.606585 -0.085290 1.716344
v 0.489589 -0.472024 -5.263535
v 0.749859 -0.335505 -4.869402
v 0.703770 -0.266448 -4.475270
v 0.964041 -0.168960 -4.081138
v 0.917952 -0.131022 -3.687006
v 1.178222 -0.054848 -3.292874
v 1.132133 -0.062458 -2.898741
v 1.392404 -0.070069 -2.504609
v 1.346314 -0.077679 -2.110476
v 1.606585 -0.085290 -1.716344
v 0.489589 -0.438433 -5.263535
v 0.749859 -0.286692 -4.869402
v 0.703770 -0.202415 -4.475270
v 0.964041 -0.089706 -4.081138
v 0.917952 -0.036546 -3.687006
v 1.178222 0.054848 -3.292874
v 1.132133 0.062458 -2.898741
v 1.392404 0.070069 -2.504609
v 1.346314 0.077679 -2.110476
v 1.606585 0.085290 -1.716344
v -2.543244 -0.195659 -0.275907
v -2.543244 -0.195659 0.275907
v -2.609915 0.047563 0.275907
v -2.609915 0.047563 -0.275907
v -3.188473 -0.241779 0.000000
v 2.771733 0.040039 -1.564300
v 2.880170 0.040039 -1.173225
v 2.771733 0.040039 -0.782150
v 2.880170 0.040039 -0.391075
v 2.771733 0.040039 0.000000
v 2.880170 0.040039 0.391075
v 2.771733 0.040039 0.782150
v 2.880170 0.040039 1.173225
v 2.771733 0.040039 1.564300
v 2.771733 -0.040039 1.564300
v 2.880170 -0.040039 1.173225
v 2.771733 -0.040039 0.782150
v 2.880170 -0.040039 0.391075
v 2.771733 -0.040039 0.000000
v 2.880170 -0.040039 -0.391075
v 2.771733 -0.040039 -0.782150
v 2.880170 -0.040039 -1.173225
v 2.771733 -0.040039 -1.564300
v -1.606585 0.134383 0.959457
v -1.499494 0.064390 1.429278
v -1.392404 -0.005602 1.899099
v -1.285313 -0.075595 2.368920
v -1.178222 -0.145588 2.838740
v -1.071132 -0.215581 3.308561
v -0.964041 -0.285573 3.778382
v -0.856950 -0.355566 4.248204
v -0.749859 -0.425559 4.718025
v -0.642769 -0.495552 5.187846
v -1.606585 -0.240883 0.959457
v -1.499494 -0.277391 1.429278
v -1.392404 -0.313899 1.899099
v -1.285313 -0.350406 2.368920
v -1.178222 -0.386914 2.838740
v -1.071132 -0.423421 3.308561
v -0.964041 -0.459929 3.778382
v -0.856950 -0.496437 4.248204
v -0.749859 -0.532944 4.718025
v -0.642769 -0.569452 5.187846
v -1.606585 -0.240883 -0.959457
v -1.499494 -0.277391 -1.429278
v -1.392404 -0.313899 -1.899099
v -1.285313 -0.350406 -2.368920
v -1.178222 -0.386914 -2.838740
v -1.071132 -0.423421 -3.308561
v -0.964041 -0.459929 -3.778382
v -0.856950 -0.496437 -4.248204
v -0.749859 -0.532944 -4.718025
v -0.642769 -0.569452 -5.187846
v -1.606585 0.134383 -0.959457
v -1.499494 0.064390 -1.429278
v -1.392404 -0.005602 -1.899099
v -1.285313 -0.075595 -2.368920
v -1.178222 -0.145588 -2.838740
v -1.071132 -0.215581 -3.308561
v -0.964041 -0.285573 -3.778382
v -0.856950 -0.355566 -4.248204
v -0.749859 -0.425559 -4.718025
v -0.642769 -0.495552 -5.187846
v 1.560496 0.092900 -0.793327
v 1.560496 0.092900 -0.264442
v 1.560496 0.092900 0.264442
v 1.560496 0.092900 0.793327
v 1.560496 -0.092900 -0.793327
v 1.560496 -0.092900 -0.264442
v 1.560496 -0.092900 0.264442
v 1.560496 -0.092900 0.793327
vt 0.255387 0.915437
vt 0.215107 0.894036
vt 0.215107 0.838784
vt 0.255387 0.817384
vt 0.155604 0.659620
vt 0.265671 0.578909
vt 0.267365 0.621062
vt 0.197285 0.676723
vt 0.199839 0.731182
vt 0.207155 0.681081
vt 0.207315 0.726171
vt 0.416349 0.696553
vt 0.360917 0.618819
vt 0.366585 0.597490
vt 0.415867 0.639836
vt 0.334947 0.608691
vt 0.363521 0.573300
vt 0.416775 0.920124
vt 0.438441 0.999749
vt 0.346210 0.986565
vt 0.362651 0.968103
vt 0.270624 0.773211
vt 0.273503 0.816881
vt 0.162876 0.752108
vt 0.570114 0.020419
vt 0.560894 0.018334
vt 0.604580 0.000251
vt 0.606698 0.003232
vt 0.000251 0.760326
vt 0.155101 0.790734
vt 0.155101 0.843690
vt 0.438441 0.592426
vt 0.893391 0.531825
vt 0.948781 0.524954
vt 0.951936 0.577400
vt 0.904414 0.590808
vt 0.650410 0.943957
vt 0.708579 0.866666
vt 0.708665 0.919622
vt 0.645726 0.983152
vt 0.593794 0.626256
vt 0.438944 0.656664
vt 0.593794 0.573300
vt 0.296332 0.570312
vt 0.306412 0.578406
vt 0.278524 0.576118
vt 0.280885 0.573610
vt 0.629773 0.000456
vt 0.621488 0.005175
vt 0.245671 0.553655
vt 0.298886 0.535098
vt 0.321033 0.528402
vt 0.643595 0.045170
vt 0.622956 0.038584
vt 0.236319 0.555252
vt 0.795295 0.066105
vt 0.739906 0.059234
vt 0.750928 0.000251
vt 0.798451 0.013659
vt 0.000251 0.178290
vt 0.059166 0.164617
vt 0.064649 0.203055
vt 0.011562 0.216068
vt 0.075925 0.243022
vt 0.025114 0.256476
vt 0.080601 0.283163
vt 0.036531 0.293381
vt 0.090272 0.324172
vt 0.048952 0.333514
vt 0.093660 0.365215
vt 0.058534 0.371024
vt 0.125252 0.403234
vt 0.093791 0.406963
vt 0.140644 0.442764
vt 0.114991 0.444979
vt 0.176706 0.481004
vt 0.155234 0.482565
vt 0.200978 0.519854
vt 0.185646 0.521094
vt 0.381722 0.408330
vt 0.322350 0.394026
vt 0.334752 0.355560
vt 0.386944 0.369967
vt 0.347769 0.317266
vt 0.398569 0.329507
vt 0.359444 0.278980
vt 0.403059 0.289877
vt 0.371221 0.240109
vt 0.412813 0.248285
vt 0.380359 0.201382
vt 0.416217 0.207269
vt 0.416333 0.165022
vt 0.448026 0.168874
vt 0.437822 0.126846
vt 0.463597 0.129182
vt 0.478449 0.089268
vt 0.499969 0.091002
vt 0.509386 0.050898
vt 0.524663 0.052497
vt 0.274583 0.766725
vt 0.259180 0.701984
vt 0.206095 0.894036
vt 0.206095 0.838784
vt 0.274583 0.630393
vt 0.155604 0.866410
vt 0.331840 0.948813
vt 0.356677 0.942570
vt 0.325378 0.907586
vt 0.351476 0.905622
vt 0.324263 0.866000
vt 0.352712 0.864911
vt 0.322350 0.823254
vt 0.349731 0.823093
vt 0.322949 0.780881
vt 0.351845 0.780678
vt 0.322420 0.737983
vt 0.349956 0.738703
vt 0.324314 0.695349
vt 0.353339 0.696191
vt 0.325949 0.652143
vt 0.353322 0.655670
vt 0.644965 0.572797
vt 0.521618 0.518406
vt 0.529437 0.469628
vt 0.643099 0.519816
vt 0.538057 0.419834
vt 0.641318 0.466896
vt 0.546820 0.371677
vt 0.639830 0.414038
vt 0.556752 0.321728
vt 0.638873 0.361409
vt 0.567408 0.273592
vt 0.638709 0.308895
vt 0.578699 0.225285
vt 0.639457 0.256569
vt 0.590308 0.177421
vt 0.641037 0.204122
vt 0.602057 0.129795
vt 0.643132 0.151365
vt 0.613808 0.082585
vt 0.644965 0.097966
vt 0.861765 0.475609
vt 0.945626 0.472507
vt 0.853828 0.428093
vt 0.943850 0.419995
vt 0.829292 0.378538
vt 0.942208 0.367480
vt 0.827473 0.335405
vt 0.940619 0.314962
vt 0.807116 0.288730
vt 0.939031 0.262444
vt 0.813434 0.249639
vt 0.938413 0.209907
vt 0.805746 0.209048
vt 0.939927 0.157387
vt 0.809981 0.169676
vt 0.942602 0.104913
vt 0.798953 0.129863
vt 0.946722 0.052534
vt 0.800883 0.090311
vt 0.951936 0.000251
vt 0.198665 0.054600
vt 0.321848 0.000251
vt 0.319995 0.053167
vt 0.206498 0.103292
vt 0.318224 0.106022
vt 0.215128 0.153032
vt 0.316732 0.158818
vt 0.223866 0.201061
vt 0.315749 0.211376
vt 0.233756 0.250958
vt 0.315535 0.263809
vt 0.244353 0.298978
vt 0.316220 0.316025
vt 0.255557 0.347179
vt 0.317746 0.368345
vt 0.267063 0.394964
vt 0.319843 0.421006
vt 0.278685 0.442605
vt 0.321848 0.474508
vt 0.290237 0.490117
vt 0.798451 0.590808
vt 0.647397 0.500748
vt 0.645467 0.461196
vt 0.793236 0.538525
vt 0.656495 0.421383
vt 0.789116 0.486146
vt 0.652260 0.382011
vt 0.786441 0.433672
vt 0.659948 0.341421
vt 0.784927 0.381153
vt 0.653630 0.302329
vt 0.785545 0.328615
vt 0.673987 0.255654
vt 0.787133 0.276097
vt 0.675806 0.212521
vt 0.788722 0.223580
vt 0.700342 0.162966
vt 0.790364 0.171064
vt 0.708279 0.115451
vt 0.792140 0.118552
vt 0.645553 0.904783
vt 0.650282 0.865594
vt 0.708535 0.813709
vt 0.645467 0.826415
vt 0.650240 0.787231
vt 0.708535 0.760753
vt 0.645467 0.748047
vt 0.650282 0.708868
vt 0.645553 0.669679
vt 0.708579 0.707797
vt 0.650410 0.630505
vt 0.645726 0.591311
vt 0.708665 0.654841
vt 0.416021 0.752649
vt 0.416092 0.809119
vt 0.416577 0.865156
vt 0.593794 0.679212
vt 0.438944 0.754717
vt 0.593794 0.732168
vt 0.593794 0.785125
vt 0.593794 0.838081
vt 0.155101 0.737777
vt 0.000251 0.662273
vt 0.155101 0.578909
vt 0.155101 0.631865
vt 0.155101 0.684821
vn -0.3734 0.9277 0.0000
vn -0.2904 -0.0796 0.9536
vn 0.2644 -0.9644 0.0000
vn 0.0447 -0.9990 -0.0053
vn 0.9636 0.0000 -0.2672
vn -0.4326 0.0000 -0.9016
vn -0.2904 -0.0796 -0.9536
vn 0.9932 0.0000 -0.1161
vn 0.1518 -0.9884 0.0000
vn -0.0162 -0.9999 0.0000
vn -0.4326 0.0000 0.9016
vn -0.0285 0.9706 0.2389
vn 0.0447 0.9990 -0.0053
vn 0.0777 0.9970 0.0000
vn 0.0000 0.0000 -1.0000
vn 0.0000 0.0000 1.0000
vn 0.0548 -0.9801 0.1906
vn -0.9750 0.0000 -0.2222
vn -0.9750 0.0000 0.2222
vn 0.9932 0.0000 0.1161
vn -0.0285 0.9706 -0.2389
vn 0.0548 -0.9801 -0.1906
vn 0.8345 0.0000 -0.5511
vn 0.8345 0.0000 0.5511
vn -0.3846 -0.1054 -0.9170
vn -0.2644 0.9644 0.0000
vn 0.0713 -0.9975 0.0000
vn -0.4473 0.8944 0.0000
vn -0.3846 -0.1054 0.9170
vn 0.9636 0.0000 0.2672
vn -0.9695 -0.1362 0.2037
vn -0.0921 0.9683 0.2322
vn -0.1170 0.9739 0.1946
vn -0.1255 0.9749 0.1839
vn -0.1218 0.9794 0.1612
vn -0.1167 0.9798 0.1623
vn -0.0919 0.9902 0.1052
vn -0.0581 0.9952 0.0791
vn -0.0377 0.9947 0.0960
vn -0.0147 0.9961 0.0869
vn -0.0169 0.9659 0.2583
vn -0.9695 -0.1362 -0.2037
vn -0.0169 0.9659 -0.2583
vn -0.0147 0.9961 -0.0869
vn -0.0377 0.9947 -0.0960
vn -0.0581 0.9952 -0.0791
vn -0.0919 0.9902 -0.1052
vn -0.1167 0.9798 -0.1623
vn -0.1218 0.9794 -0.1612
vn -0.1255 0.9749 -0.1839
vn -0.1170 0.9739 -0.1946
vn -0.0921 0.9683 -0.2322
vn 0.0714 -0.9713 0.2268
vn 0.0637 -0.9977 0.0221
vn 0.0896 -0.9948 0.0492
vn 0.1048 -0.9944 0.0147
vn 0.1403 -0.9884 0.0579
vn 0.1602 -0.9820 0.0997
vn 0.1657 -0.9796 0.1138
vn 0.1648 -0.9787 0.1226
vn 0.1546 -0.9770 0.1468
vn 0.1244 -0.9769 0.1736
vn 0.1244 -0.9769 -0.1736
vn 0.1546 -0.9770 -0.1468
vn 0.1648 -0.9787 -0.1226
vn 0.1657 -0.9796 -0.1138
vn 0.1602 -0.9820 -0.0997
vn 0.1403 -0.9884 -0.0579
vn 0.1048 -0.9944 -0.0147
vn 0.0896 -0.9948 -0.0492
vn 0.0637 -0.9977 -0.0221
vn 0.0714 -0.9713 -0.2268
vn 0.0371 0.9993 0.0103
vn 0.0436 0.9990 -0.0051
vn 0.0390 0.9992 0.0108
vn 0.0411 0.9991 -0.0114
vn 0.0436 0.9990 0.0000
vn 0.0411 0.9991 0.0114
vn 0.0390 0.9992 -0.0108
vn 0.0436 0.9990 0.0051
vn 0.0371 0.9993 -0.0103
vn 0.0447 0.9990 0.0053
vn 0.0371 -0.9993 0.0103
vn 0.0436 -0.9990 -0.0051
vn 0.0390 -0.9992 0.0108
vn 0.0411 -0.9991 -0.0114
vn 0.0436 -0.9990 0.0000
vn 0.0411 -0.9991 0.0114
vn 0.0390 -0.9992 -0.0108
vn 0.0436 -0.9990 0.0051
vn 0.0371 -0.9993 -0.0103
vn 0.0447 -0.9990 0.0053
usemtl Material
s off
f 15/1/1 5/2/1 7/3/1 12/4/1
f 13/5/2 12/6/2 7/7/2 8/8/2
f 6/9/3 8/8/3 66/10/3 65/11/3
f 135/12/4 79/13/4 4/14/4 14/15/4
f 79/13/5 78/16/5 3/17/5 4/14/5
f 9/18/6 16/19/6 1/20/6 2/21/6
f 6/9/7 5/22/7 15/23/7 10/24/7
f 35/25/8 25/26/8 19/27/8 22/28/8
f 6/9/9 10/24/9 13/5/9 8/8/9
f 13/29/10 135/30/10 14/31/10
f 4/14/11 3/17/11 11/32/11 14/15/11
f 25/33/12 97/34/12 20/35/12 19/36/12
f 78/37/13 131/38/13 11/39/13 3/40/13
f 131/41/14 12/42/14 11/43/14
f 18/44/15 23/45/15 24/46/15 17/47/15
f 22/28/16 19/27/16 20/48/16 21/49/16
f 45/50/17 117/51/17 18/44/17 17/47/17
f 117/51/18 127/52/18 23/45/18 18/44/18
f 97/53/19 107/54/19 21/49/19 20/48/19
f 55/55/20 45/50/20 17/47/20 24/46/20
f 127/56/21 55/57/21 24/58/21 23/59/21
f 107/54/22 35/25/22 22/28/22 21/49/22
f 16/60/20 9/61/20 54/62/20 64/63/20
f 64/63/23 54/62/23 53/64/23 63/65/23
f 63/65/20 53/64/20 52/66/20 62/67/20
f 62/67/23 52/66/23 51/68/23 61/69/23
f 61/69/20 51/68/20 50/70/20 60/71/20
f 60/71/23 50/70/23 49/72/23 59/73/23
f 59/73/20 49/72/20 48/74/20 58/75/20
f 58/75/23 48/74/23 47/76/23 57/77/23
f 57/77/20 47/76/20 46/78/20 56/79/20
f 56/79/23 46/78/23 45/50/23 55/55/23
f 14/80/8 11/81/8 34/82/8 44/83/8
f 44/83/24 34/82/24 33/84/24 43/85/24
f 43/85/8 33/84/8 32/86/8 42/87/8
f 42/87/24 32/86/24 31/88/24 41/89/24
f 41/89/8 31/88/8 30/90/8 40/91/8
f 40/91/24 30/90/24 29/92/24 39/93/24
f 39/93/8 29/92/8 28/94/8 38/95/8
f 38/95/24 28/94/24 27/96/24 37/97/24
f 37/97/8 27/96/8 26/98/8 36/99/8
f 36/99/24 26/98/24 25/26/24 35/25/24
f 68/100/25 65/11/25 69/101/25
f 7/3/26 5/2/26 68/102/26 67/103/26
f 5/22/15 6/9/15 65/11/15 68/100/15
f 8/8/16 7/7/16 67/104/16 66/10/16
f 65/11/27 66/10/27 69/101/27
f 67/103/28 68/102/28 69/105/28
f 66/10/29 67/104/29 69/101/29
f 2/21/30 1/20/30 70/106/30 87/107/30
f 87/107/5 70/106/5 71/108/5 86/109/5
f 86/109/30 71/108/30 72/110/30 85/111/30
f 85/111/5 72/110/5 73/112/5 84/113/5
f 84/113/30 73/112/30 74/114/30 83/115/30
f 83/115/5 74/114/5 75/116/5 82/117/5
f 82/117/30 75/116/30 76/118/30 81/119/30
f 81/119/5 76/118/5 77/120/5 80/121/5
f 80/121/30 77/120/30 78/16/30 79/13/30
f 12/122/31 13/123/31 98/124/31 88/125/31
f 88/125/19 98/124/19 99/126/19 89/127/19
f 89/127/19 99/126/19 100/128/19 90/129/19
f 90/129/19 100/128/19 101/130/19 91/131/19
f 91/131/19 101/130/19 102/132/19 92/133/19
f 92/133/19 102/132/19 103/134/19 93/135/19
f 93/135/19 103/134/19 104/136/19 94/137/19
f 94/137/19 104/136/19 105/138/19 95/139/19
f 95/139/19 105/138/19 106/140/19 96/141/19
f 96/141/19 106/140/19 107/54/19 97/53/19
f 26/142/32 96/143/32 97/34/32 25/33/32
f 27/144/33 95/145/33 96/143/33 26/142/33
f 28/146/34 94/147/34 95/145/34 27/144/34
f 29/148/35 93/149/35 94/147/35 28/146/35
f 30/150/36 92/151/36 93/149/36 29/148/36
f 31/152/37 91/153/37 92/151/37 30/150/37
f 32/154/38 90/155/38 91/153/38 31/152/38
f 33/156/39 89/157/39 90/155/39 32/154/39
f 34/158/40 88/159/40 89/157/40 33/156/40
f 11/160/41 12/161/41 88/159/41 34/158/41
f 10/162/42 15/163/42 118/164/42 108/165/42
f 108/165/18 118/164/18 119/166/18 109/167/18
f 109/167/18 119/166/18 120/168/18 110/169/18
f 110/169/18 120/168/18 121/170/18 111/171/18
f 111/171/18 121/170/18 122/172/18 112/173/18
f 112/173/18 122/172/18 123/174/18 113/175/18
f 113/175/18 123/174/18 124/176/18 114/177/18
f 114/177/18 124/176/18 125/178/18 115/179/18
f 115/179/18 125/178/18 126/180/18 116/181/18
f 116/181/18 126/180/18 127/52/18 117/51/18
f 15/182/43 16/183/43 64/184/43 118/185/43
f 118/185/44 64/184/44 63/186/44 119/187/44
f 119/187/45 63/186/45 62/188/45 120/189/45
f 120/189/46 62/188/46 61/190/46 121/191/46
f 121/191/47 61/190/47 60/192/47 122/193/47
f 122/193/48 60/192/48 59/194/48 123/195/48
f 123/195/49 59/194/49 58/196/49 124/197/49
f 124/197/50 58/196/50 57/198/50 125/199/50
f 125/199/51 57/198/51 56/200/51 126/201/51
f 126/201/52 56/200/52 55/57/52 127/56/52
f 9/61/53 10/162/53 108/165/53 54/62/53
f 54/62/54 108/165/54 109/167/54 53/64/54
f 53/64/55 109/167/55 110/169/55 52/66/55
f 52/66/56 110/169/56 111/171/56 51/68/56
f 51/68/57 111/171/57 112/173/57 50/70/57
f 50/70/58 112/173/58 113/175/58 49/72/58
f 49/72/59 113/175/59 114/177/59 48/74/59
f 48/74/60 114/177/60 115/179/60 47/76/60
f 47/76/61 115/179/61 116/181/61 46/78/61
f 46/78/62 116/181/62 117/51/62 45/50/62
f 106/140/63 36/99/63 35/25/63 107/54/63
f 105/138/64 37/97/64 36/99/64 106/140/64
f 104/136/65 38/95/65 37/97/65 105/138/65
f 103/134/66 39/93/66 38/95/66 104/136/66
f 102/132/67 40/91/67 39/93/67 103/134/67
f 101/130/68 41/89/68 40/91/68 102/132/68
f 100/128/69 42/87/69 41/89/69 101/130/69
f 99/126/70 43/85/70 42/87/70 100/128/70
f 98/124/71 44/83/71 43/85/71 99/126/71
f 13/123/72 14/80/72 44/83/72 98/124/72
f 77/202/73 131/38/73 78/37/73
f 76/203/74 130/204/74 131/38/74 77/202/74
f 75/205/75 130/204/75 76/203/75
f 74/206/76 130/204/76 75/205/76
f 74/206/77 129/207/77 130/204/77
f 73/208/78 129/207/78 74/206/78
f 72/209/79 129/207/79 73/208/79
f 71/210/80 128/211/80 129/207/80 72/209/80
f 70/212/81 128/211/81 71/210/81
f 1/213/82 16/214/82 128/211/82 70/212/82
f 135/12/83 80/121/83 79/13/83
f 134/215/84 81/119/84 80/121/84 135/12/84
f 134/215/85 82/117/85 81/119/85
f 134/215/86 83/115/86 82/117/86
f 133/216/87 83/115/87 134/215/87
f 133/216/88 84/113/88 83/115/88
f 133/216/89 85/111/89 84/113/89
f 132/217/90 86/109/90 85/111/90 133/216/90
f 132/217/91 87/107/91 86/109/91
f 9/18/92 2/21/92 87/107/92 132/217/92
f 130/218/14 12/42/14 131/41/14
f 15/219/14 12/42/14 130/218/14 129/220/14
f 15/219/14 129/220/14 128/221/14
f 16/222/14 15/219/14 128/221/14
f 13/29/10 134/223/10 135/30/10
f 10/224/10 9/225/10 132/226/10
f 13/29/10 10/224/10 133/227/10 134/223/10
f 133/227/10 10/224/10 132/226/10
