# Blender v2.90.0 OBJ File: 'tree.blend'
# www.blender.org
mtllib tree.mtl
o Cube
v 0.952129 5.365475 -0.828034
v 0.952129 -1.549963 -0.828034
v 0.938088 5.365475 0.938897
v 0.938088 -1.549963 0.938897
v -0.798069 5.365475 -0.804080
v -0.798069 -1.549963 -0.804080
v -0.607652 5.365475 0.902615
v -0.607652 -1.549963 0.902615
v 0.333333 -1.549963 -1.054189
v -0.333333 -1.549963 -1.000000
v 0.333333 5.365475 1.111708
v -0.333333 5.365475 1.000000
v -0.333333 -1.549963 1.000000
v 0.333333 -1.549963 1.111708
v -0.333333 5.365475 -1.000000
v 0.333333 5.365475 -1.054189
v -1.000000 -1.549963 -0.333333
v -0.896026 -1.549963 0.333333
v 0.911294 5.365475 -0.333333
v 1.222001 5.365475 0.367229
v -0.896026 5.365475 0.333333
v -1.000000 5.365475 -0.333333
v 1.222001 -1.549963 0.367229
v 0.911294 -1.549963 -0.333333
v -0.333333 -1.501145 -0.333333
v -0.333333 -1.501145 0.333333
v 0.333333 -1.501145 -0.333333
v 0.333333 -1.501145 0.333333
v 0.333333 5.915437 -0.333333
v 0.333333 5.915437 0.333333
v -0.333333 5.915437 -0.333333
v -0.333333 5.915437 0.333333
v -2.742165 7.412508 2.744164
v -1.918755 7.412508 -4.244194
v 4.045806 7.412508 1.771441
v 2.672370 7.412508 -4.175494
v -4.149801 7.412508 0.333333
v -4.475758 7.412508 -1.349288
v -4.704665 9.630719 -0.333333
v -2.237682 9.630719 -4.372765
v 4.530487 7.412508 -0.333333
v 4.291753 7.412508 0.333333
v 3.738909 9.630719 0.333333
v 3.418970 9.630719 2.266006
v -3.371619 9.630719 3.348819
v -0.333333 9.630719 4.165129
v -0.333333 7.412508 -4.825136
v 0.986655 7.412508 -4.727274
v 1.061631 9.630719 -4.886814
v 2.211291 9.630719 -3.879377
v 1.448949 7.412508 3.446967
v -0.333333 7.412508 3.988751
v -3.471322 10.706254 -0.333333
v -3.161764 10.706254 1.148938
v 0.333333 10.706254 2.607718
v 1.827808 10.706254 1.771441
v 0.386767 5.915437 -0.237765
v -0.173915 5.915437 -0.236473
v 0.404804 5.915437 0.344519
v -0.133160 5.915437 0.339118
v -4.571079 9.630719 1.288194
v 3.636691 9.630719 -1.463508
v -1.066253 6.273693 -3.905845
v -2.724968 6.273693 1.185231
v -0.333333 9.630719 -4.856678
v 1.528106 9.630719 3.939825
v 2.763824 6.273693 2.088096
v 2.380964 6.273693 -2.915766
v 0.333333 11.746634 -0.333333
v 2.046738 10.706254 -0.333333
v -0.850064 10.706254 -3.755056
v 1.019136 10.706254 -3.326108
v -0.333333 10.706254 2.502546
v -1.573392 10.706254 2.721083
v 0.333333 11.773393 0.333333
v 2.255497 10.706254 0.333333
v -2.332824 10.706254 -2.772784
v 1.940762 10.706254 -2.055228
v -0.333333 11.864559 -0.333333
v -0.333333 11.902395 0.333333
v -2.954066 6.273693 -1.095313
v 0.860200 6.273693 3.282710
v 2.951201 6.273693 0.807378
v -0.333333 6.273693 -3.991357
v -2.943058 6.273693 0.333333
v -0.782415 6.273693 3.340777
v 2.987542 6.273693 -0.333333
v 0.333333 6.273693 -3.526987
v 0.952129 3.163182 -0.828034
v 0.952129 2.496686 -0.828034
v -0.607652 1.804993 0.902615
v -0.607652 3.607444 0.902615
v 0.938088 3.185713 0.938897
v 0.938088 2.606057 0.938897
v -0.798069 3.213261 -0.804080
v -0.798069 2.498712 -0.804080
v -0.333333 3.607444 -1.000000
v -0.333333 1.804993 -1.000000
v 0.333333 3.607444 -1.054189
v 0.333333 1.804993 -1.054189
v 0.333333 3.607444 1.111708
v 0.333333 1.804993 1.111708
v -0.333333 3.607444 1.000000
v -0.333333 1.804993 1.000000
v 0.911294 3.607444 -0.333333
v 0.911294 1.804993 -0.333333
v 1.222001 3.185713 0.367229
v 1.222001 2.606057 0.367229
v -2.895715 4.417430 0.534855
v -2.895715 4.830981 0.534855
v -1.000000 4.381705 -0.333333
v -1.000000 3.770671 -0.333333
v -0.896026 4.381705 0.333333
v -0.896026 3.770671 0.333333
v -2.966085 4.417430 0.083652
v -2.966085 4.830981 0.083652
v -4.603292 5.277301 0.449848
v 3.229077 3.726411 1.476866
v 3.035074 3.330319 1.867499
v 3.035074 3.726411 1.867499
v 3.229077 3.330319 1.476866
v 4.511590 4.664079 1.044113
vt 0.142360 0.688132
vt 0.178557 0.688796
vt 0.163824 0.719962
vt 0.150384 0.726972
vt 0.695994 0.639198
vt 0.615054 0.639198
vt 0.615054 0.625796
vt 0.695994 0.625796
vt 0.660347 0.565351
vt 0.615054 0.565351
vt 0.615054 0.541767
vt 0.714143 0.541767
vt 0.321588 0.892473
vt 0.361201 0.903058
vt 0.342627 0.925861
vt 0.313693 0.927498
vt 0.715411 0.728664
vt 0.615054 0.728664
vt 0.615054 0.699277
vt 0.715411 0.699277
vt 0.695994 0.817135
vt 0.615054 0.817135
vt 0.615054 0.786802
vt 0.716448 0.786802
vt 0.714143 0.871150
vt 0.615054 0.871150
vt 0.615054 0.847930
vt 0.695994 0.847930
vt 0.266308 0.880018
vt 0.291683 0.885707
vt 0.284860 0.915717
vt 0.273517 0.908543
vt 0.615054 0.670320
vt 0.695994 0.670320
vt 0.068504 0.699476
vt 0.115359 0.690749
vt 0.116747 0.734229
vt 0.085873 0.726636
vt 0.106055 0.624175
vt 0.140024 0.622461
vt 0.140410 0.662052
vt 0.114030 0.663459
vt 0.075042 0.636832
vt 0.078049 0.661889
vt 0.305167 0.825778
vt 0.335683 0.830114
vt 0.328333 0.862553
vt 0.298420 0.855805
vt 0.282282 0.829884
vt 0.268416 0.848994
vt 0.615054 0.763949
vt 0.695994 0.763949
vt 0.361201 0.846573
vt 0.354387 0.868409
vt 0.615054 0.596415
vt 0.660347 0.596415
vt 0.164738 0.631455
vt 0.178557 0.654077
vt 0.818266 0.172492
vt 0.764935 0.215390
vt 0.691877 0.089762
vt 0.741987 0.042250
vt 0.377865 0.483962
vt 0.286581 0.493036
vt 0.276898 0.418908
vt 0.333540 0.394037
vt 0.342585 0.248936
vt 0.283693 0.270374
vt 0.283817 0.227032
vt 0.334690 0.198216
vt 0.999794 0.344095
vt 0.979551 0.429491
vt 0.876803 0.328497
vt 0.881436 0.246622
vt 0.112936 0.869712
vt 0.154568 0.884823
vt 0.132887 0.908699
vt 0.101042 0.910979
vt 0.298764 0.112735
vt 0.216663 0.202177
vt 0.198802 0.113028
vt 0.655034 0.004043
vt 0.615152 0.159149
vt 0.534588 0.082301
vt 0.803732 0.253055
vt 0.764481 0.318581
vt 0.735246 0.280943
vt 0.126057 0.802165
vt 0.154568 0.821310
vt 0.151456 0.846307
vt 0.116667 0.846299
vt 0.280798 0.291228
vt 0.343275 0.293203
vt 0.855635 0.218613
vt 0.052983 0.824638
vt 0.094280 0.841177
vt 0.091455 0.864586
vt 0.049550 0.858285
vt 0.067590 0.803470
vt 0.092408 0.798435
vt 0.213660 0.264499
vt 0.196799 0.421675
vt 0.209349 0.323422
vt 0.867605 0.519871
vt 0.801594 0.377630
vt 0.311854 0.000206
vt 0.161391 0.018386
vt 0.069869 0.897475
vt 0.057419 0.889603
vt 0.361428 0.102500
vt 0.413690 0.013924
vt 0.744083 0.000206
vt 0.384798 0.533786
vt 0.299517 0.569315
vt 0.137152 0.285683
vt 0.146239 0.258311
vt 0.691001 0.312578
vt 0.611726 0.239621
vt 0.519351 0.194936
vt 0.722722 0.360624
vt 0.101594 0.125029
vt 0.065875 0.104810
vt 0.143494 0.196910
vt 0.755406 0.448845
vt 0.141084 0.356392
vt 0.186758 0.481100
vt 0.150462 0.559237
vt 0.048388 0.508301
vt 0.121337 0.425776
vt 0.585147 0.449640
vt 0.730168 0.516832
vt 0.558290 0.422776
vt 0.040914 0.284625
vt 0.041584 0.249413
vt 0.000206 0.287122
vt 0.002283 0.243612
vt 0.518939 0.388816
vt 0.485821 0.362866
vt 0.916445 0.097523
vt 0.916477 0.066788
vt 0.482452 0.182653
vt 0.518939 0.153951
vt 0.459966 0.217978
vt 0.953992 0.154670
vt 0.927637 0.124816
vt 0.983717 0.177798
vt 0.466220 0.302118
vt 0.450632 0.256643
vt 0.461518 0.331593
vt 0.999794 0.178161
vt 0.933443 0.596415
vt 0.688479 0.596415
vt 0.688479 0.565351
vt 0.933443 0.565351
vt 0.566716 0.949058
vt 0.559710 0.980395
vt 0.465347 0.953467
vt 0.471228 0.933451
vt 0.933443 0.625796
vt 0.778980 0.625796
vt 0.933443 0.763948
vt 0.778980 0.763949
vt 0.742098 0.728664
vt 0.933443 0.728664
vt 0.933443 0.786802
vt 0.747134 0.786802
vt 0.933443 0.670320
vt 0.778980 0.670320
vt 0.778980 0.639198
vt 0.933443 0.639198
vt 0.933443 0.699277
vt 0.742098 0.699277
vt 0.933443 0.847930
vt 0.778980 0.847930
vt 0.778980 0.817135
vt 0.933443 0.817135
vt 0.374146 0.692252
vt 0.291161 0.692252
vt 0.291161 0.661457
vt 0.374146 0.661457
vt 0.933443 0.871150
vt 0.747041 0.871150
vt 0.342207 0.715472
vt 0.309309 0.715472
vt 0.311615 0.631125
vt 0.342300 0.631125
vt 0.860230 0.888086
vt 0.863015 0.915678
vt 0.753799 0.923100
vt 0.756797 0.902937
vt 0.747041 0.541767
vt 0.933443 0.541767
vt 0.562233 0.888646
vt 0.562261 0.920380
vt 0.468005 0.915056
vt 0.468129 0.894399
vt 0.388878 0.909245
vt 0.566716 0.860742
vt 0.470190 0.875531
vt 0.857317 0.962920
vt 0.863015 0.987476
vt 0.758740 0.979337
vt 0.753810 0.961693
vt 0.656972 0.944700
vt 0.857188 0.939634
vt 0.744663 0.941661
vn -0.5273 0.7238 0.4451
vn -0.3345 0.0000 0.9424
vn -0.9190 0.0000 -0.3942
vn -0.0367 -0.9984 -0.0438
vn 0.8956 0.0000 0.4448
vn 0.3433 0.0000 -0.9392
vn -0.3885 0.0000 -0.9215
vn -0.0810 0.0000 -0.9967
vn 0.0644 -0.9964 -0.0544
vn 0.0056 -0.9977 -0.0674
vn 0.2748 0.0000 0.9615
vn -0.1653 0.0000 0.9863
vn 0.3481 0.8403 0.4155
vn -0.0507 0.7947 0.6049
vn -0.0252 0.7834 -0.6210
vn 0.0000 1.0000 0.0000
vn 0.4449 0.8215 -0.3567
vn 0.5964 0.7911 -0.1355
vn 0.0029 -0.9975 0.0702
vn 0.0000 -1.0000 0.0000
vn 0.0520 -0.9973 0.0520
vn 0.0792 -0.9968 -0.0062
vn 0.9966 0.0000 0.0823
vn 0.9141 0.0000 -0.4054
vn -0.0480 -0.9981 0.0385
vn -0.0668 -0.9977 0.0152
vn -0.8921 0.0000 0.4519
vn -0.9881 0.0000 0.1541
vn -0.4521 0.7689 -0.4521
vn -0.6659 0.7442 0.0519
vn -0.5628 -0.7007 -0.4385
vn 0.1947 -0.7559 -0.6251
vn 0.6701 -0.7345 0.1068
vn -0.5170 -0.5431 0.6616
vn -0.3644 -0.8234 -0.4350
vn 0.5949 -0.1040 0.7971
vn -0.2914 -0.0554 -0.9550
vn -0.9700 -0.2021 0.1349
vn -0.4381 -0.8274 0.3513
vn -0.6207 -0.7677 0.1591
vn 0.6769 -0.6888 -0.2597
vn 0.6266 -0.7735 0.0954
vn -0.7036 -0.6181 0.3506
vn -0.6431 -0.7626 0.0697
vn 0.5708 -0.8184 -0.0665
vn 0.3865 -0.8374 0.3865
vn 0.0257 -0.8221 0.5688
vn 0.9581 0.2368 0.1609
vn 0.8710 0.1801 -0.4570
vn -0.3460 -0.2101 0.9144
vn -0.8071 -0.3566 0.4706
vn -0.8097 0.0174 -0.5866
vn 0.2037 -0.1496 0.9675
vn 0.4614 -0.7971 -0.3895
vn 0.0585 -0.7962 -0.6021
vn 0.5018 -0.3595 0.7868
vn 0.1585 -0.3949 0.9049
vn -0.2371 -0.5132 -0.8248
vn 0.1987 -0.6839 -0.7020
vn 0.5546 0.8292 -0.0700
vn -0.6743 0.6359 -0.3753
vn -0.2754 0.7207 -0.6362
vn -0.6259 0.7747 0.0894
vn 0.0274 0.8170 0.5759
vn 0.5555 0.8223 0.1232
vn -0.4611 0.8137 0.3539
vn 0.5752 0.7898 -0.2129
vn 0.0754 0.7833 -0.6170
vn 0.9454 0.3216 0.0524
vn 0.0249 -0.0434 -0.9987
vn 0.4807 0.0687 -0.8742
vn -0.1754 0.9137 0.3666
vn -0.2802 0.9356 -0.2146
vn -0.3626 0.9313 0.0358
vn 0.4992 0.8612 -0.0954
vn 0.1819 0.9822 -0.0476
vn 0.4232 0.8943 -0.1453
vn 0.0980 0.9422 -0.3204
vn 0.3500 0.8888 0.2958
vn 0.0503 0.8899 0.4533
vn 0.4816 0.7591 -0.4379
vn 0.3376 0.8239 0.4553
vn -0.0899 0.7602 0.6434
vn 0.0966 -0.9445 -0.3140
vn -0.0664 -0.9570 -0.2824
vn -0.0087 -0.9276 0.3736
vn 0.1962 -0.9121 0.3600
vn -0.4169 -0.9087 0.0229
vn -0.3881 -0.9112 0.1383
vn 0.4360 -0.8976 -0.0650
vn 0.4219 -0.9033 -0.0776
vn -0.3162 -0.8962 0.3112
vn 0.4147 -0.9038 0.1055
vn 0.1064 -0.9348 -0.3390
vn -0.3524 -0.9085 -0.2244
vn -0.3031 -0.9518 0.0473
vn 0.2700 -0.9535 0.1341
vn 0.2159 0.9758 -0.0337
vn -0.2183 0.0000 -0.9759
vn -0.2075 0.0000 -0.9782
vn 0.1003 0.0000 0.9950
vn -0.4049 0.0000 0.9144
vn -0.4514 -0.8895 0.0704
vn -0.0497 0.0000 0.9988
vn 0.2545 0.9662 -0.0397
vn 0.4870 0.0000 0.8734
vn -0.2057 0.9733 -0.1022
vn 0.4838 0.0000 -0.8752
vn -0.3197 0.0000 -0.9475
vn -0.6271 0.7140 -0.3114
vn 0.7279 -0.5826 0.3615
usemtl Material
s off
f 32/1/1 21/2/1 7/3/1 12/4/1
f 103/5/2 12/6/2 7/7/2 92/8/2
f 111/9/3 22/10/3 5/11/3 95/12/3
f 28/13/4 23/14/4 4/15/4 14/16/4
f 107/17/5 20/18/5 3/19/5 93/20/5
f 99/21/6 16/22/6 1/23/6 89/24/6
f 95/25/7 5/26/7 15/27/7 97/28/7
f 97/28/8 15/27/8 16/22/8 99/21/8
f 18/29/9 26/30/9 13/31/9 8/32/9
f 26/30/10 28/13/10 14/16/10 13/31/10
f 93/20/11 3/19/11 11/33/11 101/34/11
f 101/34/12 11/33/12 12/6/12 103/5/12
f 20/35/13 30/36/13 11/37/13 3/38/13
f 30/36/14 32/1/14 12/4/14 11/37/14
f 16/39/15 15/40/15 31/41/15 29/42/15
f 29/42/16 31/41/16 32/1/16 30/36/16
f 1/43/17 16/39/17 29/42/17 19/44/17
f 19/44/18 29/42/18 30/36/18 20/35/18
f 10/45/19 9/46/19 27/47/19 25/48/19
f 25/48/20 27/47/20 28/13/20 26/30/20
f 6/49/21 10/45/21 25/48/21 17/50/21
f 17/50/22 25/48/22 26/30/22 18/29/22
f 89/24/23 1/23/23 19/51/23 105/52/23
f 105/52/24 19/51/24 20/18/24 107/17/24
f 9/46/25 2/53/25 24/54/25 27/47/25
f 27/47/26 24/54/26 23/14/26 28/13/26
f 92/8/27 7/7/27 21/55/27 113/56/27
f 113/56/28 21/55/28 22/10/28 111/9/28
f 15/40/29 5/57/29 22/58/29 31/41/29
f 31/41/30 22/58/30 21/2/30 32/1/30
f 81/59/31 38/60/31 34/61/31 63/62/31
f 88/63/32 48/64/32 36/65/32 68/66/32
f 83/67/33 42/68/33 35/69/33 67/70/33
f 86/71/34 52/72/34 33/73/34 64/74/34
f 59/75/35 20/76/35 3/77/35 11/78/35
f 51/79/36 35/69/36 44/80/36 66/81/36
f 47/82/37 34/61/37 40/83/37 65/84/37
f 38/60/38 37/85/38 61/86/38 39/87/38
f 16/88/39 1/89/39 19/90/39 57/91/39
f 57/91/40 19/90/40 20/76/40 59/75/40
f 68/66/41 36/65/41 41/92/41 87/93/41
f 87/93/42 41/92/42 42/68/42 83/67/42
f 64/74/43 33/73/43 37/85/43 85/94/43
f 85/94/44 37/85/44 38/60/44 81/59/44
f 22/95/45 58/96/45 60/97/45 21/98/45
f 58/96/20 57/91/20 59/75/20 60/97/20
f 5/99/46 15/100/46 58/96/46 22/95/46
f 15/100/47 16/88/47 57/91/47 58/96/47
f 35/69/48 42/68/48 43/101/48 44/80/48
f 41/92/49 36/65/49 50/102/49 62/103/49
f 33/73/50 52/72/50 46/104/50 45/105/50
f 37/85/51 33/73/51 45/105/51 61/86/51
f 34/61/52 38/60/52 39/87/52 40/83/52
f 52/106/53 51/79/53 66/81/53 46/107/53
f 21/98/54 60/97/54 12/108/54 7/109/54
f 60/97/55 59/75/55 11/78/55 12/108/55
f 67/70/56 35/69/56 51/79/56 82/110/56
f 82/110/57 51/79/57 52/106/57 86/111/57
f 63/62/58 34/61/58 47/82/58 84/112/58
f 84/113/59 47/114/59 48/64/59 88/63/59
f 43/101/60 62/103/60 70/115/60 76/116/60
f 40/83/61 39/87/61 53/117/61 77/118/61
f 65/84/62 40/83/62 77/118/62 71/119/62
f 39/87/63 61/86/63 54/120/63 53/117/63
f 46/107/64 66/81/64 55/121/64 73/122/64
f 44/80/65 43/101/65 76/116/65 56/123/65
f 61/86/66 45/105/66 74/124/66 54/120/66
f 62/103/67 50/102/67 78/125/67 70/115/67
f 49/126/68 65/127/68 71/128/68 72/129/68
f 42/68/69 41/92/69 62/103/69 43/101/69
f 48/64/70 47/114/70 65/127/70 49/126/70
f 36/65/71 48/64/71 49/126/71 50/102/71
f 80/130/72 54/120/72 74/124/72 73/131/72
f 71/119/73 77/118/73 53/117/73 79/132/73
f 79/132/74 53/117/74 54/120/74 80/130/74
f 70/115/75 69/133/75 75/134/75 76/116/75
f 69/133/76 79/135/76 80/136/76 75/134/76
f 78/125/77 72/129/77 69/133/77 70/115/77
f 72/129/78 71/128/78 79/135/78 69/133/78
f 76/116/79 75/134/79 55/121/79 56/123/79
f 75/134/80 80/136/80 73/122/80 55/121/80
f 50/102/81 49/126/81 72/129/81 78/125/81
f 66/81/82 44/80/82 56/123/82 55/121/82
f 45/105/83 46/104/83 73/131/83 74/124/83
f 15/137/84 84/113/84 88/63/84 16/138/84
f 5/139/85 63/62/85 84/112/85 15/140/85
f 11/141/86 82/110/86 86/111/86 12/142/86
f 3/143/87 67/70/87 82/110/87 11/141/87
f 21/144/88 85/94/88 81/59/88 22/145/88
f 7/146/89 64/74/89 85/94/89 21/144/89
f 19/147/90 87/93/90 83/67/90 20/148/90
f 1/149/91 68/66/91 87/93/91 19/147/91
f 12/150/92 86/71/92 64/74/92 7/146/92
f 20/148/93 83/67/93 67/70/93 3/143/93
f 16/138/94 88/63/94 68/66/94 1/149/94
f 22/145/95 81/59/95 63/62/95 5/139/95
f 18/151/28 114/152/28 112/153/28 17/154/28
f 112/155/96 114/156/96 109/157/96 115/158/96
f 8/159/27 91/160/27 114/152/27 18/151/27
f 91/160/27 92/8/27 113/56/27 114/152/27
f 24/161/24 106/162/24 108/163/24 23/164/24
f 106/162/24 105/52/24 107/17/24 108/163/24
f 2/165/23 90/166/23 106/162/23 24/161/23
f 90/166/23 89/24/23 105/52/23 106/162/23
f 14/167/12 102/168/12 104/169/12 13/170/12
f 102/168/12 101/34/12 103/5/12 104/169/12
f 4/171/11 94/172/11 102/168/11 14/167/11
f 94/172/11 93/20/11 101/34/11 102/168/11
f 10/173/8 98/174/8 100/175/8 9/176/8
f 98/177/8 97/178/8 99/179/8 100/180/8
f 6/181/7 96/182/7 98/174/7 10/173/7
f 96/183/7 95/184/7 97/178/7 98/177/7
f 9/176/6 100/175/6 90/166/6 2/165/6
f 100/180/6 99/179/6 89/185/6 90/186/6
f 23/164/5 108/163/5 94/172/5 4/171/5
f 94/187/97 108/188/97 121/189/97 119/190/97
f 17/154/3 112/153/3 96/191/3 6/192/3
f 112/153/3 111/9/3 95/12/3 96/191/3
f 13/170/2 104/169/2 91/160/2 8/159/2
f 104/169/2 103/5/2 92/8/2 91/160/2
f 113/193/98 111/194/98 116/195/98 110/196/98
f 116/195/99 115/158/99 117/197/99
f 111/194/100 112/155/100 115/158/100 116/195/100
f 114/198/101 113/193/101 110/196/101 109/199/101
f 93/200/102 94/201/102 119/202/102 120/203/102
f 115/158/103 109/157/103 117/197/103
f 109/199/104 110/196/104 117/197/104
f 110/196/105 116/195/105 117/197/105
f 120/203/106 119/202/106 122/204/106
f 107/205/107 93/200/107 120/203/107 118/206/107
f 108/188/108 107/205/108 118/206/108 121/189/108
f 121/189/109 118/206/109 122/204/109
f 118/206/110 120/203/110 122/204/110
f 119/190/111 121/189/111 122/204/111
